<?xml version="1.0" encoding="UTF-8"?>
<svg width="131px" height="36px" viewBox="0 0 131 36" version="1.1" xmlns="http://www.w3.org/2000/svg" xmlns:xlink="http://www.w3.org/1999/xlink">
    <title>FH_Health_Logos_Hor_White</title>
    <g id="Express-PCR" stroke="none" stroke-width="1" fill="none" fill-rule="evenodd">
        <g id="PDF-Express-PCR_Negative-(FH-Health)" transform="translate(-355.000000, -26.000000)" fill="#FFFFFF" fill-rule="nonzero">
            <g id="Group-23" transform="translate(355.000000, 16.000000)">
                <g id="FH_Health_Logos_Hor_White" transform="translate(0.000000, 10.000000)">
                    <g id="Group" transform="translate(45.600000, 13.200000)">
                        <polygon id="Path" points="0.00169927601 2.35579702e-15 6.52352061 2.35579702e-15 6.52352061 1.70084614 1.99664931 1.70084614 1.99664931 4.10126058 5.84890804 4.10126058 5.84890804 5.71921948 1.99664931 5.71921948 1.99664931 9.6 -9.65926581e-15 9.6 -9.65926581e-15 2.35579702e-15"></polygon>
                        <polygon id="Path" points="9.9815473 2.35579702e-15 11.9781966 2.35579702e-15 11.9781966 3.94874806 15.5772632 3.94874806 15.5772632 2.35579702e-15 17.5739125 2.35579702e-15 17.5739125 9.59834226 15.5772632 9.59834226 15.5772632 5.6495942 11.9781966 5.6495942 11.9781966 9.59834226 9.9815473 9.59834226"></polygon>
                        <polygon id="Path" points="26.7092204 2.35579702e-15 28.7058697 2.35579702e-15 28.7058697 3.94874806 32.3049363 3.94874806 32.3049363 2.35579702e-15 34.3015856 2.35579702e-15 34.3015856 9.59834226 32.3049363 9.59834226 32.3049363 5.6495942 28.7058697 5.6495942 28.7058697 9.59834226 26.7092204 9.59834226"></polygon>
                        <polygon id="Path" points="38.459714 2.35579702e-15 44.8693831 2.35579702e-15 44.8693831 1.70084614 40.4563633 1.70084614 40.4563633 3.97692972 44.2236582 3.97692972 44.2236582 5.59488862 40.4563633 5.59488862 40.4563633 7.89915386 44.8982708 7.89915386 44.8982708 9.6 38.4614133 9.6 38.4614133 2.35579702e-15"></polygon>
                        <path d="M47.5134566,8.95347954 L50.9154072,4.71159403e-15 L52.8695746,4.71159403e-15 L56.2851194,8.95347954 L56.2851194,9.59834226 L54.3173577,9.59834226 L53.5288937,7.34878259 L50.169425,7.34878259 L49.3537725,9.59834226 L47.5117573,9.59834226 L47.5117573,8.95347954 L47.5134566,8.95347954 Z M52.9239514,5.73082369 L51.8551068,2.60431704 L50.7590738,5.73082369 L52.9239514,5.73082369 Z" id="Shape"></path>
                        <polygon id="Path" points="59.4610662 2.35579702e-15 61.4577156 2.35579702e-15 61.4577156 7.89915386 65.9556992 7.89915386 65.9556992 9.6 59.4610662 9.6"></polygon>
                        <polygon id="Path" points="69.6805122 1.6991884 66.9123916 1.6991884 66.9123916 2.35579702e-15 74.4316879 2.35579702e-15 74.4316879 1.70084614 71.6771615 1.70084614 71.6771615 9.6 69.6805122 9.6"></polygon>
                        <polygon id="Path" points="77.6076348 2.35579702e-15 79.6042841 2.35579702e-15 79.6042841 3.94874806 83.2033507 3.94874806 83.2033507 2.35579702e-15 85.2 2.35579702e-15 85.2 9.59834226 83.2033507 9.59834226 83.2033507 5.6495942 79.6042841 5.6495942 79.6042841 9.59834226 77.6076348 9.59834226"></polygon>
                    </g>
                    <g id="Group">
                        <path d="M16.8,2.37786168 C20.4520984,2.37786168 23.4226554,5.3476079 23.4226554,8.99870955 C23.4226554,12.6498112 20.4520984,15.6195574 16.8,15.6195574 C13.1479016,15.6195574 10.1773446,12.6498112 10.1773446,8.99870955 C10.1773446,5.34932849 13.1479016,2.37786168 16.8,2.37786168 M16.8,0 C11.8278452,0 7.79711264,4.02963246 7.79711264,9.00043015 C7.79711264,13.9712278 11.8278452,18.0008603 16.8,18.0008603 C21.7721548,18.0008603 25.8028874,13.9712278 25.8028874,9.00043015 C25.8028874,4.02963246 21.7721548,0 16.8,0 L16.8,0 Z" id="Shape"></path>
                        <path d="M9.01218404,6.87721646 L9.01218404,6.87721646 C10.1652971,6.87721646 11.3080838,7.18520289 12.3149064,7.76504325 C15.4782226,9.59059408 16.5642142,13.6477561 14.738165,16.8102089 C13.5592359,18.8525546 11.3579947,20.1223534 8.9949734,20.1223534 C7.84186032,20.1223534 6.69907362,19.814367 5.692251,19.2345266 C2.52893482,17.4089758 1.44294325,13.3518138 3.26899247,10.189361 C4.44792151,8.14529465 6.64916275,6.87721646 9.01218404,6.87721646 M9.01218404,4.49763418 C5.90049978,4.49763418 2.87486874,6.11155188 1.20715744,8.99870955 C-1.27805941,13.3036371 0.196892692,18.8078191 4.50299557,21.2923577 C5.92115256,22.1113607 7.46838936,22.5002151 8.9949734,22.5002151 C12.1066577,22.5002151 15.1322887,20.8862974 16.8,17.9991397 C19.2852169,13.6942121 17.8102647,8.19003011 13.5041619,5.70549156 C12.0877259,4.88648855 10.5404891,4.49763418 9.01218404,4.49763418 L9.01218404,4.49763418 Z" id="Shape"></path>
                        <path d="M8.99669446,13.4980643 L8.99669446,15.8776466 C11.3597157,15.8776466 13.560957,17.1474454 14.739886,19.1897911 C16.5659353,22.3522439 15.4782226,26.4094059 12.3166275,28.2349567 C11.3098049,28.8165177 10.1670182,29.1227835 9.0139051,29.1227835 C6.65088382,29.1227835 4.44964258,27.8529848 3.27071353,25.810639 C1.44466431,22.6481862 2.53237695,18.5910242 5.69397207,16.7654734 C6.70079468,16.1839124 7.84358138,15.8776466 8.99669446,15.8776466 L8.99669446,13.4980643 M8.9949734,13.4980643 C7.46838936,13.4980643 5.91943149,13.8869187 4.50299557,14.7059217 C0.196892692,17.1904603 -1.27805941,22.6946423 1.20715744,26.9995699 C2.87486874,29.8867275 5.90049978,31.5006452 9.01218404,31.5006452 C10.5387681,31.5006452 12.0877259,31.1117909 13.5041619,30.2927878 C17.8102647,27.8082493 19.2852169,22.3040673 16.8,17.9991397 C15.1322887,15.111982 12.1066577,13.4980643 8.9949734,13.4980643 L8.9949734,13.4980643 Z" id="Shape"></path>
                        <path d="M16.8,20.378722 C20.4520984,20.378722 23.4226554,23.3484682 23.4226554,26.9995699 C23.4226554,30.6506715 20.4520984,33.6204177 16.8,33.6204177 C13.1479016,33.6204177 10.1773446,30.6506715 10.1773446,26.9995699 C10.1773446,23.3484682 13.1479016,20.378722 16.8,20.378722 M16.8,17.9991397 C11.8278452,17.9991397 7.79711264,22.0287722 7.79711264,26.9995699 C7.79711264,31.9703675 11.8278452,36 16.8,36 C21.7721548,36 25.8028874,31.9703675 25.8028874,26.9995699 C25.8028874,22.0287722 21.7721548,17.9991397 16.8,17.9991397 L16.8,17.9991397 Z" id="Shape"></path>
                        <path d="M24.6050266,15.875926 L24.6050266,15.875926 C25.7581397,15.875926 26.9009264,16.1839124 27.907749,16.7637528 C31.0710652,18.5893036 32.1570568,22.6464656 30.3310075,25.8089184 C29.1520785,27.8512642 26.9508372,29.1210629 24.587816,29.1210629 C23.4347029,29.1210629 22.2919162,28.8130765 21.2850936,28.2332362 C18.1217774,26.4076853 17.0357858,22.3505233 18.861835,19.1880705 C20.0407641,17.1457248 22.2420053,15.875926 24.6050266,15.875926 M24.6050266,13.4980643 C21.4933423,13.4980643 18.4677113,15.111982 16.8,17.9991397 C14.3147831,22.3040673 15.7897353,27.8082493 20.0958381,30.2927878 C21.5139951,31.1117909 23.0612319,31.5006452 24.587816,31.5006452 C27.6995002,31.5006452 30.7251313,29.8867275 32.3928426,26.9995699 C34.8780594,22.6946423 33.4031073,17.1904603 29.0970044,14.7059217 C27.6805685,13.8869187 26.1316106,13.4980643 24.6050266,13.4980643 L24.6050266,13.4980643 Z" id="Shape"></path>
                        <path d="M24.587816,4.49763418 L24.587816,6.87721646 C26.9508372,6.87721646 29.1520785,8.14701525 30.3310075,10.189361 C32.1570568,13.3518138 31.0693441,17.4089758 27.907749,19.2345266 C26.9009264,19.8160876 25.7581397,20.1223534 24.6050266,20.1223534 C22.2420053,20.1223534 20.0407641,18.8525546 18.861835,16.8102089 C17.0357858,13.6477561 18.1234984,9.59059408 21.2850936,7.76504325 C22.2919162,7.18348229 23.4347029,6.87721646 24.587816,6.87721646 L24.587816,4.49763418 M24.587816,4.49763418 C23.0612319,4.49763418 21.5122741,4.88648855 20.0958381,5.70549156 C15.7897353,8.19003011 14.3147831,13.6942121 16.8,17.9991397 C18.4677113,20.8862974 21.4933423,22.5002151 24.6050266,22.5002151 C26.1316106,22.5002151 27.6805685,22.1113607 29.0970044,21.2923577 C33.4031073,18.8078191 34.8780594,13.3036371 32.3928426,8.99870955 C30.7251313,6.11155188 27.6995002,4.49763418 24.587816,4.49763418 L24.587816,4.49763418 Z" id="Shape"></path>
                    </g>
                </g>
            </g>
        </g>
    </g>
</svg>