<?xml version="1.0" encoding="UTF-8"?>
<svg width="236px" height="56px" viewBox="0 0 236 56" version="1.1" xmlns="http://www.w3.org/2000/svg" xmlns:xlink="http://www.w3.org/1999/xlink">
    <title>Group 23@1.5x</title>
    <g id="Antibody" stroke="none" stroke-width="1" fill="none" fill-rule="evenodd">
        <g id="PDF-PCR_Inconclusive-(FH-Health)" transform="translate(-346.000000, -16.000000)">
            <g id="Group-23" transform="translate(346.000000, 17.000000)">
                <g id="Group-22" transform="translate(164.000000, 0.500000)" fill="#FFFFFF" font-size="8" opacity="0.9">
                    <text id="2637-Yonge-Street-To" font-family="DMSans-Medium, DM Sans" font-weight="400">
                        <tspan x="0" y="8">2637 Yonge Street </tspan>
                        <tspan x="0" y="18">Toronto, ON</tspan>
                    </text>
                    <text id="999-999-9999" font-family="DMSans-Bold, DM Sans" font-weight="bold">
                        <tspan x="0" y="51">999-999-9999</tspan>
                    </text>
                    <text id="info@fhhealth.ca" font-family="DMSans-Medium, DM Sans" font-weight="400">
                        <tspan x="0" y="32">info@fhhealth.ca</tspan>
                    </text>
                </g>
                <line x1="147.5" y1="6.03371519e-14" x2="147.5" y2="54" id="Line-4" stroke="#FFFFFF" opacity="0.5" stroke-linecap="square"></line>
                <g id="FH_Health_Logos_Hor_White" transform="translate(0.000000, 9.000000)" fill="#FFFFFF" fill-rule="nonzero">
                    <g id="Group" transform="translate(45.600000, 7.200000)">
                        <polygon id="Path" points="0.00169927601 2.35579702e-15 6.52352061 2.35579702e-15 6.52352061 1.70084614 1.99664931 1.70084614 1.99664931 4.10126058 5.84890804 4.10126058 5.84890804 5.71921948 1.99664931 5.71921948 1.99664931 9.6 -9.65926581e-15 9.6 -9.65926581e-15 2.35579702e-15"></polygon>
                        <polygon id="Path" points="9.9815473 2.35579702e-15 11.9781966 2.35579702e-15 11.9781966 3.94874806 15.5772632 3.94874806 15.5772632 2.35579702e-15 17.5739125 2.35579702e-15 17.5739125 9.59834226 15.5772632 9.59834226 15.5772632 5.6495942 11.9781966 5.6495942 11.9781966 9.59834226 9.9815473 9.59834226"></polygon>
                        <polygon id="Path" points="26.7092204 2.35579702e-15 28.7058697 2.35579702e-15 28.7058697 3.94874806 32.3049363 3.94874806 32.3049363 2.35579702e-15 34.3015856 2.35579702e-15 34.3015856 9.59834226 32.3049363 9.59834226 32.3049363 5.6495942 28.7058697 5.6495942 28.7058697 9.59834226 26.7092204 9.59834226"></polygon>
                        <polygon id="Path" points="38.459714 2.35579702e-15 44.8693831 2.35579702e-15 44.8693831 1.70084614 40.4563633 1.70084614 40.4563633 3.97692972 44.2236582 3.97692972 44.2236582 5.59488862 40.4563633 5.59488862 40.4563633 7.89915386 44.8982708 7.89915386 44.8982708 9.6 38.4614133 9.6 38.4614133 2.35579702e-15"></polygon>
                        <path d="M47.5134566,8.95347954 L50.9154072,4.71159403e-15 L52.8695746,4.71159403e-15 L56.2851194,8.95347954 L56.2851194,9.59834226 L54.3173577,9.59834226 L53.5288937,7.34878259 L50.169425,7.34878259 L49.3537725,9.59834226 L47.5117573,9.59834226 L47.5117573,8.95347954 L47.5134566,8.95347954 Z M52.9239514,5.73082369 L51.8551068,2.60431704 L50.7590738,5.73082369 L52.9239514,5.73082369 Z" id="Shape"></path>
                        <polygon id="Path" points="59.4610662 2.35579702e-15 61.4577156 2.35579702e-15 61.4577156 7.89915386 65.9556992 7.89915386 65.9556992 9.6 59.4610662 9.6"></polygon>
                        <polygon id="Path" points="69.6805122 1.6991884 66.9123916 1.6991884 66.9123916 2.35579702e-15 74.4316879 2.35579702e-15 74.4316879 1.70084614 71.6771615 1.70084614 71.6771615 9.6 69.6805122 9.6"></polygon>
                        <polygon id="Path" points="77.6076348 2.35579702e-15 79.6042841 2.35579702e-15 79.6042841 3.94874806 83.2033507 3.94874806 83.2033507 2.35579702e-15 85.2 2.35579702e-15 85.2 9.59834226 83.2033507 9.59834226 83.2033507 5.6495942 79.6042841 5.6495942 79.6042841 9.59834226 77.6076348 9.59834226"></polygon>
                    </g>
                    <g id="Group" transform="translate(44.400000, 24.000000)">
                        <polygon id="Path" points="1.25470993 0.788663347 0 0.788663347 0 0.0992723095 3.25083937 0.0992723095 3.25083937 0.788663347 1.99612944 0.788663347 1.99612944 4.69888931 1.25470993 4.69888931"></polygon>
                        <polygon id="Path" points="6.02986633 0.0992723095 8.80370854 0.0992723095 8.80370854 0.788663347 6.77128584 0.788663347 6.77128584 2.06449636 8.51336244 2.06449636 8.51336244 2.72263501 6.77128584 2.72263501 6.77128584 4.01133665 8.81062154 4.01133665 8.81062154 4.70072769 6.02986633 4.70072769 6.02986633 0.0992723095"></polygon>
                        <path d="M11.4980512,3.2079663 L12.2394707,3.2079663 C12.2394707,3.89735733 12.7959674,4.07567982 13.2211171,4.07567982 C13.7395922,4.07567982 14.0299383,3.82566067 14.0299383,3.47820758 C14.0299383,3.15649177 13.8018093,3.02412869 13.0845853,2.74837227 L12.930771,2.68954424 C11.9733201,2.30164688 11.613844,2.05162773 11.613844,1.34201455 C11.613844,0.533129069 12.206634,0.0018383761 13.1709978,0.0018383761 C14.1405464,0.0018383761 14.7782708,0.494523171 14.7782708,1.55342781 L14.0368513,1.55342781 C14.0368513,0.974339334 13.6652775,0.72615856 13.165813,0.72615856 C12.6784464,0.72615856 12.3621765,0.963309077 12.3621765,1.28502489 C12.3621765,1.65270011 12.5470993,1.73910379 13.2954318,2.02037534 L13.3818444,2.0534661 C14.2718934,2.39540406 14.8145641,2.69138261 14.8145641,3.43960169 C14.8145641,4.24848717 14.2338719,4.8 13.1779108,4.8 C12.227373,4.79816162 11.4980512,4.24664879 11.4980512,3.2079663 Z" id="Path"></path>
                        <polygon id="Path" points="18.6651064 0.788663347 17.4103965 0.788663347 17.4103965 0.0992723095 20.6612359 0.0992723095 20.6612359 0.788663347 19.4065259 0.788663347 19.4065259 4.69888931 18.6651064 4.69888931"></polygon>
                        <polygon id="Path" points="23.4419911 0.0992723095 24.1834106 0.0992723095 24.1834106 4.70072769 23.4419911 4.70072769"></polygon>
                        <polygon id="Path" points="27.3962285 0.0992723095 28.0754309 0.0992723095 29.9298438 3.23370356 29.9298438 0.0992723095 30.6712633 0.0992723095 30.6712633 4.70072769 29.9920608 4.70072769 28.137648 1.56629644 28.137648 4.70072769 27.3962285 4.70072769"></polygon>
                        <path d="M33.7596471,3.16200689 L33.7596471,1.65637687 C33.7596471,0.612179242 34.3904586,5.22497914e-15 35.4706152,5.22497914e-15 C36.3727621,5.22497914e-15 37.0951708,0.545997702 37.0951708,1.56445806 L37.0951708,1.59019533 L36.3537513,1.59019533 L36.3537513,1.56445806 C36.3537513,1.05890463 36.0081012,0.722481808 35.4395067,0.722481808 C34.8657275,0.722481808 34.5010667,1.05706626 34.5010667,1.60306396 L34.5010667,3.16016852 C34.5010667,3.73190349 34.841532,4.07384144 35.4153112,4.07384144 C35.8162654,4.07384144 36.1757415,3.86426656 36.3537513,3.51497511 L36.3537513,2.923018 L35.5017237,2.923018 L35.5017237,2.26487936 L37.0951708,2.26487936 L37.0951708,4.69705094 L36.6942167,4.69705094 L36.4712723,4.26319418 C36.199937,4.61800077 35.8352761,4.79632743 35.372105,4.79632743 C34.3645349,4.79816162 33.7596471,4.19333589 33.7596471,3.16200689 Z" id="Path"></path>
                        <path d="M43.7074576,3.14178476 L43.7074576,1.65637687 C43.7074576,0.604825737 44.3192583,0 45.3873172,0 C46.282551,0 46.9807642,0.538644198 46.9807642,1.59019533 L46.9807642,1.65637687 L46.2393447,1.65637687 L46.2393447,1.59019533 C46.2393447,1.01110686 45.7951843,0.722481808 45.3804042,0.722481808 C44.7565057,0.722481808 44.4471488,1.04419763 44.4471488,1.60306396 L44.4471488,3.19325929 C44.4471488,3.75212562 44.7565057,4.07384144 45.3804042,4.07384144 C45.8072821,4.07384144 46.2393447,3.77786289 46.2393447,3.20612792 L46.2393447,3.13994638 L46.9807642,3.13994638 L46.9807642,3.20612792 C46.9807642,4.26503255 46.282551,4.79632743 45.3873172,4.79632743 C44.3192583,4.79816162 43.7074576,4.19333589 43.7074576,3.14178476 Z" id="Path"></path>
                        <polygon id="Path" points="50.0086593 0.0992723095 52.7825015 0.0992723095 52.7825015 0.788663347 50.7500788 0.788663347 50.7500788 2.06449636 52.4921554 2.06449636 52.4921554 2.72263501 50.7500788 2.72263501 50.7500788 4.01133665 52.7894145 4.01133665 52.7894145 4.70072769 50.0086593 4.70072769 50.0086593 0.0992723095"></polygon>
                        <polygon id="Path" points="55.7550925 0.0992723095 56.434295 0.0992723095 58.2887079 3.23370356 58.2887079 0.0992723095 59.0301274 0.0992723095 59.0301274 4.70072769 58.3509249 4.70072769 56.496512 1.56629644 56.496512 4.70072769 55.7550925 4.70072769"></polygon>
                        <polygon id="Path" points="63.0638643 0.788663347 61.8091543 0.788663347 61.8091543 0.0992723095 65.0599937 0.0992723095 65.0599937 0.788663347 63.8052838 0.788663347 63.8052838 4.69888931 63.0638643 4.69888931"></polygon>
                        <path d="M67.8407489,0.0992723095 L69.7003466,0.0992723095 C70.5402763,0.0992723095 71.0034475,0.61769437 71.0034475,1.51298353 C71.0034475,2.1233244 70.7442099,2.61049406 70.2430172,2.84029108 L71.0518385,4.43783991 L71.0518385,4.70072769 L70.3225168,4.70072769 L69.4324677,2.93220988 L68.5804402,2.93220988 L68.5804402,4.70072769 L67.8390207,4.70072769 L67.8390207,0.0992723095 L67.8407489,0.0992723095 Z M69.5638148,2.2612026 C70.0218012,2.2612026 70.2499302,2.01853696 70.2499302,1.52585216 C70.2499302,1.03316737 70.0218012,0.790501723 69.5638148,0.790501723 L68.5821684,0.790501723 L68.5821684,2.26304098 L69.5638148,2.26304098 L69.5638148,2.2612026 Z" id="Shape"></path>
                        <polygon id="Path" points="74.0192448 0.0992723095 76.793087 0.0992723095 76.793087 0.788663347 74.7606643 0.788663347 74.7606643 2.06449636 76.5027409 2.06449636 76.5027409 2.72263501 74.7606643 2.72263501 74.7606643 4.01133665 76.8 4.01133665 76.8 4.70072769 74.0192448 4.70072769 74.0192448 0.0992723095"></polygon>
                    </g>
                    <g id="Group">
                        <path d="M16.8,2.37786168 C20.4520984,2.37786168 23.4226554,5.3476079 23.4226554,8.99870955 C23.4226554,12.6498112 20.4520984,15.6195574 16.8,15.6195574 C13.1479016,15.6195574 10.1773446,12.6498112 10.1773446,8.99870955 C10.1773446,5.34932849 13.1479016,2.37786168 16.8,2.37786168 M16.8,0 C11.8278452,0 7.79711264,4.02963246 7.79711264,9.00043015 C7.79711264,13.9712278 11.8278452,18.0008603 16.8,18.0008603 C21.7721548,18.0008603 25.8028874,13.9712278 25.8028874,9.00043015 C25.8028874,4.02963246 21.7721548,0 16.8,0 L16.8,0 Z" id="Shape"></path>
                        <path d="M9.01218404,6.87721646 L9.01218404,6.87721646 C10.1652971,6.87721646 11.3080838,7.18520289 12.3149064,7.76504325 C15.4782226,9.59059408 16.5642142,13.6477561 14.738165,16.8102089 C13.5592359,18.8525546 11.3579947,20.1223534 8.9949734,20.1223534 C7.84186032,20.1223534 6.69907362,19.814367 5.692251,19.2345266 C2.52893482,17.4089758 1.44294325,13.3518138 3.26899247,10.189361 C4.44792151,8.14529465 6.64916275,6.87721646 9.01218404,6.87721646 M9.01218404,4.49763418 C5.90049978,4.49763418 2.87486874,6.11155188 1.20715744,8.99870955 C-1.27805941,13.3036371 0.196892692,18.8078191 4.50299557,21.2923577 C5.92115256,22.1113607 7.46838936,22.5002151 8.9949734,22.5002151 C12.1066577,22.5002151 15.1322887,20.8862974 16.8,17.9991397 C19.2852169,13.6942121 17.8102647,8.19003011 13.5041619,5.70549156 C12.0877259,4.88648855 10.5404891,4.49763418 9.01218404,4.49763418 L9.01218404,4.49763418 Z" id="Shape"></path>
                        <path d="M8.99669446,13.4980643 L8.99669446,15.8776466 C11.3597157,15.8776466 13.560957,17.1474454 14.739886,19.1897911 C16.5659353,22.3522439 15.4782226,26.4094059 12.3166275,28.2349567 C11.3098049,28.8165177 10.1670182,29.1227835 9.0139051,29.1227835 C6.65088382,29.1227835 4.44964258,27.8529848 3.27071353,25.810639 C1.44466431,22.6481862 2.53237695,18.5910242 5.69397207,16.7654734 C6.70079468,16.1839124 7.84358138,15.8776466 8.99669446,15.8776466 L8.99669446,13.4980643 M8.9949734,13.4980643 C7.46838936,13.4980643 5.91943149,13.8869187 4.50299557,14.7059217 C0.196892692,17.1904603 -1.27805941,22.6946423 1.20715744,26.9995699 C2.87486874,29.8867275 5.90049978,31.5006452 9.01218404,31.5006452 C10.5387681,31.5006452 12.0877259,31.1117909 13.5041619,30.2927878 C17.8102647,27.8082493 19.2852169,22.3040673 16.8,17.9991397 C15.1322887,15.111982 12.1066577,13.4980643 8.9949734,13.4980643 L8.9949734,13.4980643 Z" id="Shape"></path>
                        <path d="M16.8,20.378722 C20.4520984,20.378722 23.4226554,23.3484682 23.4226554,26.9995699 C23.4226554,30.6506715 20.4520984,33.6204177 16.8,33.6204177 C13.1479016,33.6204177 10.1773446,30.6506715 10.1773446,26.9995699 C10.1773446,23.3484682 13.1479016,20.378722 16.8,20.378722 M16.8,17.9991397 C11.8278452,17.9991397 7.79711264,22.0287722 7.79711264,26.9995699 C7.79711264,31.9703675 11.8278452,36 16.8,36 C21.7721548,36 25.8028874,31.9703675 25.8028874,26.9995699 C25.8028874,22.0287722 21.7721548,17.9991397 16.8,17.9991397 L16.8,17.9991397 Z" id="Shape"></path>
                        <path d="M24.6050266,15.875926 L24.6050266,15.875926 C25.7581397,15.875926 26.9009264,16.1839124 27.907749,16.7637528 C31.0710652,18.5893036 32.1570568,22.6464656 30.3310075,25.8089184 C29.1520785,27.8512642 26.9508372,29.1210629 24.587816,29.1210629 C23.4347029,29.1210629 22.2919162,28.8130765 21.2850936,28.2332362 C18.1217774,26.4076853 17.0357858,22.3505233 18.861835,19.1880705 C20.0407641,17.1457248 22.2420053,15.875926 24.6050266,15.875926 M24.6050266,13.4980643 C21.4933423,13.4980643 18.4677113,15.111982 16.8,17.9991397 C14.3147831,22.3040673 15.7897353,27.8082493 20.0958381,30.2927878 C21.5139951,31.1117909 23.0612319,31.5006452 24.587816,31.5006452 C27.6995002,31.5006452 30.7251313,29.8867275 32.3928426,26.9995699 C34.8780594,22.6946423 33.4031073,17.1904603 29.0970044,14.7059217 C27.6805685,13.8869187 26.1316106,13.4980643 24.6050266,13.4980643 L24.6050266,13.4980643 Z" id="Shape"></path>
                        <path d="M24.587816,4.49763418 L24.587816,6.87721646 C26.9508372,6.87721646 29.1520785,8.14701525 30.3310075,10.189361 C32.1570568,13.3518138 31.0693441,17.4089758 27.907749,19.2345266 C26.9009264,19.8160876 25.7581397,20.1223534 24.6050266,20.1223534 C22.2420053,20.1223534 20.0407641,18.8525546 18.861835,16.8102089 C17.0357858,13.6477561 18.1234984,9.59059408 21.2850936,7.76504325 C22.2919162,7.18348229 23.4347029,6.87721646 24.587816,6.87721646 L24.587816,4.49763418 M24.587816,4.49763418 C23.0612319,4.49763418 21.5122741,4.88648855 20.0958381,5.70549156 C15.7897353,8.19003011 14.3147831,13.6942121 16.8,17.9991397 C18.4677113,20.8862974 21.4933423,22.5002151 24.6050266,22.5002151 C26.1316106,22.5002151 27.6805685,22.1113607 29.0970044,21.2923577 C33.4031073,18.8078191 34.8780594,13.3036371 32.3928426,8.99870955 C30.7251313,6.11155188 27.6995002,4.49763418 24.587816,4.49763418 L24.587816,4.49763418 Z" id="Shape"></path>
                    </g>
                </g>
            </g>
        </g>
    </g>
</svg>